<svg width="174" height="205" viewBox="0 0 174 205" fill="none" xmlns="http://www.w3.org/2000/svg">
<path fill-rule="evenodd" clip-rule="evenodd" d="M156.459 125.625C155.456 124.517 153.861 124.534 152.867 125.645C140.945 138.525 128.392 145.076 115.593 145.24C103.13 145.398 90.5397 139.326 78.1868 127.293C75.441 124.667 71.1966 119.198 67.4631 112.742C70.5958 107.68 72.6834 101.687 73.7141 95.912C75.2344 87.3833 74.1274 79.5413 71.6218 75.6575C70.2334 73.5068 68.4431 72.1889 66.3498 71.6395C63.6704 70.9405 60.0297 71.5641 55.8513 75.5451C50.0862 81.0635 48.685 88.943 50.4072 97.6148C51.3168 102.174 53.1533 106.957 55.4408 111.555C52.7939 113.928 49.5007 115.301 45.4929 114.807C37.0092 113.825 30.6483 106 26.1237 96.7941C22.1997 88.8297 17.4725 77.064 18.7221 67.715C19.1452 64.538 20.3825 61.8075 18.0481 59.2109C14.4742 55.1936 11.198 59.3522 10.6115 63.7158C9.35596 73.0898 12.3307 84.3818 15.2665 93.0293C20.6545 108.943 30.7653 123.256 44.4177 125.229C50.818 126.121 56.2488 124.21 60.6479 120.658C64.8234 127.166 69.3267 132.551 72.2815 135.254C86.902 148.359 101.616 154.453 115.853 153.526C130.075 152.608 143.869 144.764 156.477 129.66C157.464 128.533 157.462 126.733 156.459 125.625ZM61.6281 100.106C60.7403 97.4608 60.1403 94.8623 59.9644 92.3916C59.7453 89.2496 60.2849 86.3359 62.465 84.2653C62.8344 83.9198 63.2843 83.4373 63.6537 83.0918C63.9316 84.1829 64.4122 86.329 64.4193 88.1042C64.4188 92.0666 63.6169 96.7818 62.0072 101.173C61.8558 100.805 61.7349 100.46 61.6281 100.106Z" fill="#FF7426"/>
<path fill-rule="evenodd" clip-rule="evenodd" d="M63.9892 82.7904C64.2391 82.9462 64.4785 83.0451 64.4594 82.8245C64.43 82.5469 64.264 82.591 63.9892 82.7904Z" fill="#FF7426"/>
<path fill-rule="evenodd" clip-rule="evenodd" d="M149.474 131.891C148.313 134.805 147.19 137.906 146.389 140.862C145.157 145.474 144.629 149.694 145.642 152.766C145.958 154.299 147.334 155.25 148.69 154.879C150.054 154.524 150.901 152.979 150.571 151.456C150.501 150.696 150.737 149.907 150.96 149.021C151.471 146.931 152.613 144.75 153.856 142.397C155.445 139.396 157.356 136.398 158.986 133.625C160.469 131.116 161.706 128.789 162.493 126.944C163.736 124.04 163.803 121.602 163.522 120.174C163.444 119.801 160.688 114.257 155.976 116.466C154.291 117.262 150.116 119.524 149.91 119.637C147.401 121.179 142.742 123.968 138.304 125.426C136.902 125.89 135.548 126.302 134.314 126.361C134.249 126.234 134.184 126.107 134.104 125.989C132.952 124.151 130.711 123.718 129.067 124.996C128.156 125.609 126.967 127.333 126.649 128.366C126.039 130.371 126.718 131.986 128.385 133.321C130.655 135.132 133.94 135.651 137.632 135.311C141.513 134.935 145.91 133.397 149.474 131.891ZM153.573 122.58C153.848 121.978 153.941 121.535 153.57 121.437C153.154 121.325 153.431 122.121 153.573 122.58Z" fill="#FF7426"/>
</svg>
